HIERARCHY
ROOT Hips
{
	OFFSET 0.000000 0.000000 0.000000
	CHANNELS 6 Xposition Yposition Zposition Yrotation Xrotation Zrotation
	JOINT Chest
	{
		OFFSET 0.000000 -0.009281 11.569106
		CHANNELS 3 Yrotation Xrotation Zrotation
		JOINT Chest2
		{
			OFFSET -0.000000 0.016865 9.269641
			CHANNELS 3 Yrotation Xrotation Zrotation
			JOINT Chest3
			{
				OFFSET -0.000000 0.000001 8.374491
				CHANNELS 3 Yrotation Xrotation Zrotation
				JOINT Chest4
				{
					OFFSET -0.000000 0.000001 8.374493
					CHANNELS 3 Yrotation Xrotation Zrotation
					JOINT Neck
					{
						OFFSET -0.000000 0.000002 12.152554
						CHANNELS 3 Yrotation Xrotation Zrotation
						JOINT Head
						{
							OFFSET -0.000000 0.040101 7.802319
							CHANNELS 3 Yrotation Xrotation Zrotation
							End Site
							{
								OFFSET -0.000000 0.020947 14.853096
							}
						}
					}
					JOINT RightCollar
					{
						OFFSET 2.894404 0.000001 6.791374
						CHANNELS 3 Yrotation Xrotation Zrotation
						JOINT RightShoulder
						{
							OFFSET 13.574684 0.000001 0.000000
							CHANNELS 3 Yrotation Xrotation Zrotation
							JOINT RightElbow
							{
								OFFSET 23.923903 0.000002 0.000000
								CHANNELS 3 Yrotation Xrotation Zrotation
								JOINT RightWrist
								{
									OFFSET 19.846718 0.012767 0.000000
									CHANNELS 3 Yrotation Xrotation Zrotation
									End Site
									{
										OFFSET 14.973145 0.000001 0.000000
									}
								}
							}
						}
					}
					JOINT LeftCollar
					{
						OFFSET -2.894404 0.000001 6.791374
						CHANNELS 3 Yrotation Xrotation Zrotation
						JOINT LeftShoulder
						{
							OFFSET -13.574684 -0.000001 0.000000
							CHANNELS 3 Yrotation Xrotation Zrotation
							JOINT LeftElbow
							{
								OFFSET -23.923903 -0.000002 0.000000
								CHANNELS 3 Yrotation Xrotation Zrotation
								JOINT LeftWrist
								{
									OFFSET -19.846718 0.012763 0.000000
									CHANNELS 3 Yrotation Xrotation Zrotation
									End Site
									{
										OFFSET -14.973145 -0.000001 0.000000
									}
								}
							}
						}
					}
				}
			}
		}
	}
	JOINT RightHip
	{
		OFFSET 9.469263 0.004643 0.045487
		CHANNELS 3 Yrotation Xrotation Zrotation
		JOINT RightKnee
		{
			OFFSET 0.000000 0.002661 -40.478676
			CHANNELS 3 Yrotation Xrotation Zrotation
			JOINT RightAnkle
			{
				OFFSET 0.000000 0.049106 -35.224068
				CHANNELS 3 Yrotation Xrotation Zrotation
				JOINT RightToe
				{
					OFFSET -0.000001 12.539529 -6.151390
					CHANNELS 3 Yrotation Xrotation Zrotation
					End Site
					{
						OFFSET -0.000001 5.044994 -1.291870
					}
				}
			}
		}
	}
	JOINT LeftHip
	{
		OFFSET -9.469263 0.004641 0.045487
		CHANNELS 3 Yrotation Xrotation Zrotation
		JOINT LeftKnee
		{
			OFFSET 0.000000 0.002661 -40.478676
			CHANNELS 3 Yrotation Xrotation Zrotation
			JOINT LeftAnkle
			{
				OFFSET 0.000000 0.049106 -35.224068
				CHANNELS 3 Yrotation Xrotation Zrotation
				JOINT LeftToe
				{
					OFFSET -0.000001 12.539529 -6.151390
					CHANNELS 3 Yrotation Xrotation Zrotation
					End Site
					{
						OFFSET -0.000001 5.044994 -1.291870
					}
				}
			}
		}
	}
}
MOTION
Frames: 15
Frame Time: 0.016667
10.722335 6.385327 83.051521 -3.638881 -1.172812 -109.426515 -0.752348 -3.980116 0.767743 -0.317215 -1.767302 0.327056 -0.317216 -1.767303 0.327055 -0.236948 -1.325648 0.244354 0.448764 -10.540709 -2.548032 -0.289643 16.582166 -4.726017 0.376200 24.631773 -5.857704 12.997975 38.414374 24.068292 -9.481121 -1.591203 36.734352 31.991551 -13.022562 -21.117447 0.811338 27.699291 3.829251 -10.768810 29.638083 -21.491521 0.923421 8.840974 -36.681760 -34.060818 -22.435725 30.565653 -0.463375 -5.225978 -3.464399 1.960340 -2.829738 -5.807805 -1.024902 4.147875 2.198663 -0.015595 -0.019203 0.036212 -0.613059 -5.832794 -0.077137 0.188038 -2.049198 2.240697 1.112952 4.096890 1.308414 -0.085495 -0.055447 -0.029267 
10.744285 6.392991 83.049828 -3.572212 -1.175695 -109.469143 -0.736972 -3.916170 0.781173 -0.310311 -1.738672 0.334657 -0.310312 -1.738672 0.334657 -0.231764 -1.304175 0.250090 0.465817 -10.664997 -2.563408 -0.258699 16.351637 -4.744029 0.526066 24.676707 -5.744185 14.125625 39.279701 24.746371 -11.093144 -1.461943 37.934782 31.166140 -13.964624 -21.517661 0.551340 27.229806 3.636336 -11.524340 30.673604 -21.809643 1.489902 9.662456 -38.625273 -33.675910 -23.584968 31.385529 -0.440625 -5.185492 -3.488740 1.932524 -2.800905 -5.781919 -0.998820 4.132388 2.234766 -0.009075 -0.012941 0.034468 -0.596926 -5.796928 -0.033877 0.173364 -2.033164 2.236902 1.133095 4.107359 1.309139 -0.071992 -0.053936 -0.028504 
10.772339 6.401939 83.047813 -3.511922 -1.183543 -109.520369 -0.748184 -3.847488 0.821532 -0.314921 -1.708219 0.353255 -0.314921 -1.708219 0.353254 -0.235186 -1.281347 0.264042 0.514311 -10.778227 -2.595331 -0.174959 16.142341 -4.780265 0.733187 24.644689 -5.663006 15.233755 40.025779 25.263876 -12.774399 -1.150195 39.321232 30.243647 -14.887548 -21.826191 0.276093 26.826722 3.407374 -12.406082 31.720249 -22.235891 2.173952 10.315315 -40.626870 -33.126247 -24.849975 32.038399 -0.427450 -5.148437 -3.485140 1.920442 -2.786966 -5.771427 -0.980217 4.124856 2.294146 -0.000605 -0.005319 0.031582 -0.577174 -5.771868 0.018804 0.148958 -2.021935 2.238955 1.154801 4.125905 1.304825 -0.056645 -0.051851 -0.027068 
10.799932 6.416936 83.044266 -3.452172 -1.186575 -109.571049 -0.785433 -3.769415 0.888025 -0.332201 -1.674573 0.382374 -0.332201 -1.674573 0.382372 -0.248085 -1.256139 0.285851 0.594550 -10.892039 -2.642103 -0.036673 15.932721 -4.831001 0.925275 24.557013 -5.622856 16.434337 40.898527 25.692807 -14.462902 -0.942657 40.850969 29.109214 -15.739616 -21.974674 -0.009647 26.537399 2.992137 -13.354943 32.895892 -22.641935 2.937007 10.656997 -42.562146 -32.402059 -26.218853 32.459047 -0.423203 -5.093149 -3.454697 1.919116 -2.803737 -5.783231 -0.973475 4.132284 2.303377 0.011216 0.000436 0.027271 -0.560161 -5.735977 0.057224 0.110060 -2.029201 2.252914 1.184360 4.157978 1.318814 -0.040735 -0.053137 -0.024393 
10.822570 6.435838 83.038940 -3.395068 -1.192587 -109.615418 -0.813760 -3.687004 0.962558 -0.345864 -1.639084 0.415598 -0.345864 -1.639084 0.415601 -0.258265 -1.229550 0.310751 0.664366 -11.020759 -2.689372 0.081770 15.695034 -4.887110 0.938326 24.419427 -5.819985 18.027362 41.942149 26.323259 -16.061241 -0.927681 42.463976 27.819816 -16.583663 -21.958756 -0.284461 26.259262 2.540538 -14.452516 34.156072 -23.080533 3.682345 10.826325 -44.458162 -31.575159 -27.649448 32.734805 -0.420038 -5.031096 -3.413614 1.914125 -2.835054 -5.806532 -0.968334 4.144824 2.332083 0.027859 0.003226 0.026136 -0.543785 -5.680611 0.055894 0.075909 -2.073882 2.255823 1.216522 4.209568 1.358323 -0.029886 -0.059024 -0.023751 
10.841411 6.461407 83.033409 -3.338643 -1.200542 -109.648476 -0.801781 -3.602336 1.014936 -0.340675 -1.602064 0.440501 -0.340675 -1.602065 0.440500 -0.254335 -1.201794 0.329460 0.679313 -11.164455 -2.710760 0.106565 15.428265 -4.917451 1.069002 23.830798 -5.735708 19.508175 43.596715 26.954445 -17.445046 -1.051191 44.081443 26.415762 -17.406163 -21.904852 -0.740910 25.978691 2.005395 -15.383534 35.322453 -23.308483 4.251742 11.085132 -46.484287 -30.657355 -29.087727 32.936046 -0.416643 -4.961074 -3.397998 1.911964 -2.879977 -5.813287 -0.968588 4.159239 2.356339 0.044080 0.005927 0.024351 -0.535527 -5.608592 0.002728 0.050924 -2.146468 2.245589 1.255510 4.272922 1.448682 -0.023486 -0.066563 -0.023632 
10.858245 6.492535 83.030106 -3.292205 -1.218389 -109.681138 -0.745406 -3.525834 1.036380 -0.314950 -1.568633 0.451648 -0.314949 -1.568633 0.451646 -0.235038 -1.176708 0.337904 0.639005 -11.313177 -2.693101 0.042531 15.151204 -4.896943 1.296740 23.277457 -5.465111 20.732004 45.193313 27.503664 -18.677359 -1.121537 45.608342 24.925025 -18.208898 -21.763964 -0.974825 25.428192 1.883860 -16.671686 36.503488 -23.603122 4.674671 11.462569 -48.742566 -29.610561 -30.342169 32.997228 -0.419075 -4.891897 -3.404533 1.917743 -2.945326 -5.785401 -0.966358 4.172986 2.384943 0.056178 0.013755 0.023681 -0.530367 -5.539697 -0.059402 0.036885 -2.232618 2.240799 1.297047 4.334446 1.554860 -0.022131 -0.068555 -0.023525 
10.880189 6.526833 83.029411 -3.260263 -1.244012 -109.720084 -0.683760 -3.455121 1.034497 -0.286767 -1.536955 0.452304 -0.286767 -1.536956 0.452301 -0.213925 -1.152930 0.338484 0.592979 -11.464881 -2.645343 -0.019154 14.869218 -4.820949 1.544671 23.248108 -5.159589 21.617188 46.053380 27.651898 -19.854545 -0.923347 47.103378 23.276719 -18.987202 -21.495160 -1.143373 24.512299 1.936806 -18.099467 37.886311 -23.985551 5.120005 11.806722 -51.031308 -28.380821 -31.284295 32.882419 -0.414280 -4.845369 -3.412256 1.913737 -2.999386 -5.747413 -0.960751 4.176532 2.393114 0.066042 0.024514 0.023887 -0.528086 -5.495150 -0.074716 0.028140 -2.308142 2.234728 1.338869 4.389325 1.614297 -0.022919 -0.065917 -0.023793 
10.908919 6.557271 83.029602 -3.236823 -1.271210 -109.770149 -0.660600 -3.387891 1.043908 -0.276794 -1.506214 0.457845 -0.276794 -1.506214 0.457845 -0.206455 -1.129869 0.342683 0.605043 -11.612832 -2.602664 0.028123 14.596125 -4.729564 1.904329 23.638921 -4.826969 22.131695 46.234066 27.315084 -20.991381 -0.418937 48.574519 21.344519 -19.803145 -21.052940 -1.392698 23.718033 1.861322 -19.286339 39.162259 -24.289777 5.541292 11.979599 -53.162344 -26.880534 -32.268788 32.724379 -0.409992 -4.816957 -3.411318 1.906035 -3.042516 -5.708848 -0.955897 4.178886 2.395332 0.076411 0.033611 0.024026 -0.527102 -5.479426 -0.032124 0.020660 -2.355207 2.215713 1.375896 4.435069 1.644357 -0.021875 -0.061631 -0.022793 
10.942621 6.581895 83.028870 -3.209494 -1.291819 -109.827919 -0.676299 -3.307574 1.091307 -0.285391 -1.469670 0.479059 -0.285391 -1.469670 0.479060 -0.212879 -1.102477 0.358589 0.676265 -11.770539 -2.590087 0.175772 14.306145 -4.670297 2.299810 24.019439 -4.571963 22.595456 46.406552 26.818948 -22.036933 -0.030973 50.045380 19.098795 -20.584003 -20.371676 -1.764517 23.304276 1.438935 -20.001809 40.138474 -24.253959 5.983148 11.958058 -55.041786 -25.157171 -33.655006 32.387299 -0.409670 -4.783829 -3.398686 1.898758 -3.091394 -5.674471 -0.956350 4.187878 2.417675 0.087925 0.041713 0.022390 -0.517251 -5.476720 0.055217 -0.004288 -2.374999 2.177435 1.408842 4.474094 1.651396 -0.014638 -0.057996 -0.019534 
10.979272 6.604540 83.026901 -3.184589 -1.303925 -109.871967 -0.674124 -3.230595 1.134744 -0.287061 -1.435056 0.498314 -0.287061 -1.435056 0.498315 -0.214115 -1.076527 0.373041 0.733680 -11.937355 -2.588237 0.292290 13.998440 -4.637756 2.516473 24.086577 -4.470356 23.363325 46.979076 26.562875 -22.928008 0.083576 51.475823 16.707196 -21.285088 -19.566368 -2.296824 23.285911 0.691030 -20.282776 40.771107 -23.656010 6.541829 11.907533 -56.763325 -23.201143 -35.387757 31.556300 -0.416403 -4.755088 -3.379219 1.895455 -3.139071 -5.654684 -0.959533 4.205220 2.422848 0.096694 0.044534 0.020145 -0.515557 -5.476718 0.111728 -0.028124 -2.390071 2.138660 1.438535 4.512294 1.677017 -0.005677 -0.055307 -0.016368 
11.020772 6.629148 83.025261 -3.162229 -1.316319 -109.888926 -0.620690 -3.158946 1.148055 -0.264495 -1.403174 0.505773 -0.264496 -1.403175 0.505773 -0.197200 -1.052600 0.378703 0.727867 -12.111951 -2.579716 0.290798 13.674322 -4.619651 2.424715 23.773653 -4.676636 24.657910 47.868093 26.882062 -23.673205 -0.001801 52.767658 14.258325 -21.934229 -18.755713 -2.710832 23.013028 0.194189 -20.956463 41.367515 -23.225724 7.063122 12.130086 -58.400385 -20.756844 -37.250247 30.075263 -0.420136 -4.743408 -3.365624 1.885368 -3.167975 -5.653107 -0.954379 4.216781 2.416403 0.102394 0.047346 0.018854 -0.515877 -5.471822 0.079190 -0.051515 -2.418358 2.121506 1.472806 4.554526 1.738958 0.001063 -0.052037 -0.016079 
11.064393 6.654504 83.025230 -3.152735 -1.343472 -109.893079 -0.529158 -3.069768 1.127159 -0.223323 -1.364003 0.498021 -0.223323 -1.364003 0.498021 -0.166373 -1.023185 0.373001 0.669911 -12.317440 -2.552573 0.198699 13.291569 -4.587389 2.359056 23.299268 -4.763694 25.850145 48.728899 27.240922 -24.443751 -0.018088 53.893089 11.848545 -22.581024 -17.826883 -2.835420 21.996459 0.310597 -22.583377 42.360543 -23.653437 7.551461 12.417535 -59.925962 -17.613818 -38.826019 28.005666 -0.416558 -4.753236 -3.346477 1.877201 -3.192852 -5.673359 -0.941979 4.222401 2.426756 0.103146 0.055194 0.018003 -0.509886 -5.476417 -0.003759 -0.074727 -2.463987 2.161314 1.510852 4.603602 1.803688 0.003993 -0.046458 -0.016048 
11.109116 6.681458 83.026344 -3.158790 -1.381317 -109.902962 -0.468268 -2.986612 1.108122 -0.194808 -1.327721 0.490844 -0.194808 -1.327721 0.490846 -0.145033 -0.995947 0.367697 0.640083 -12.526217 -2.525914 0.160181 12.903639 -4.544004 2.527991 23.127654 -4.575784 26.493260 49.132730 26.969393 -25.239200 0.339263 54.982903 9.391049 -23.177540 -16.696042 -2.863070 20.779968 0.601503 -24.504893 43.665539 -24.429789 7.854238 12.431419 -61.372733 -13.949072 -40.183905 25.541720 -0.406997 -4.777389 -3.317036 1.862679 -3.223251 -5.692665 -0.925443 4.226227 2.439440 0.103802 0.065127 0.017511 -0.500688 -5.498773 -0.072308 -0.093211 -2.510384 2.218401 1.541195 4.650480 1.831733 0.007862 -0.038780 -0.016974 
11.149714 6.706737 83.026985 -3.175337 -1.413529 -109.921233 -0.465803 -2.918974 1.128072 -0.194082 -1.298283 0.500043 -0.194082 -1.298283 0.500043 -0.144493 -0.973871 0.374607 0.682279 -12.724891 -2.530684 0.245184 12.536084 -4.530712 2.943865 23.238892 -4.222399 26.707792 49.253785 26.196624 -26.008981 0.894109 56.065598 6.675276 -23.626123 -15.332752 -3.120173 20.243439 0.456979 -25.756911 44.797449 -24.672534 7.999618 12.011414 -62.676623 -9.877768 -41.555759 22.673728 -0.401931 -4.797988 -3.257202 1.845831 -3.269958 -5.722429 -0.921094 4.240770 2.434879 0.112204 0.069995 0.016694 -0.497902 -5.528562 -0.100243 -0.114663 -2.556303 2.260138 1.564468 4.697107 1.845556 0.016452 -0.031991 -0.015797 
